# xmcd
#
# Track frame offsets:
#	150
#	14699
#	32355
#	46055
#	61315
#	79503
#	98557
#	112954
#	130756
#	148040
#	148880
#	149744
#	150857
#	151792
#	152664
#	153622
#
# Disc length: 2058 seconds
#
# Revision: 1
# Processed by: cddbd v1.5.2PL0 Copyright (c) Steve Scherf et al.
# Submitted via: audiograbber 1.83.01
#
DISCID=c6080810
DTITLE=Various Artist - CDX 601
DYEAR=2014
DGENRE=Country
TTITLE0=T Graham Brown w. Vince Gill - He'll Take Care Of You
TTITLE1=Clinton Gregory ft. Ira Dean - You Can't Hide High
TTITLE2=Reckless Johnny Wales - Blood In The Mud (The Border Song)
TTITLE3=Sammy Hakim - Fearless
TTITLE4=Rhett Walker Band - Here's To The Ones
TTITLE5=Teea Goans - Nobody Wins
TTITLE6=Grayson Rogers  - Party Rocker
TTITLE7=North 40 - Whole Lot Of Livin'
TTITLE8=Mike Aiken - Your Memory Wins
TTITLE9=Johnny Orr Band - Home Town Country (Liner)
TTITLE10=Johnny Orr Band - Kickin' Country (Liner)
TTITLE11=Johnny Orr Band - My New Single (Liner)
TTITLE12=Johnny Orr Band - Super Country (Liner)
TTITLE13=Johnny Orr Band - The Best In Country (Liner)
TTITLE14=Johnny Orr Band - The Country You Love (Liner)
TTITLE15=Johnny Orr Band - Today's Best Country (Liner)
EXTD=
EXTT0=
EXTT1=
EXTT2=
EXTT3=
EXTT4=
EXTT5=
EXTT6=
EXTT7=
EXTT8=
EXTT9=
EXTT10=
EXTT11=
EXTT12=
EXTT13=
EXTT14=
EXTT15=
PLAYORDER=
